# xmcd
#
# Track frame offsets:
#	150
#	13372
#	25202
#	39012
#	49332
#	61357
#	71047
#	80870
#	92175
#	111107
#	122630
#	134955
#	148732
#	158367
#	173125
#	186582
#	198722
#	212885
#	233897
#	244837
#	258255
#	268775
#	279295
#	293215
#
# Disc length: 4072 seconds
# Revision: 0
# Processed by: cddbd v1.5.2PL0 Copyright (c) Steve Scherf et al.
# Submitted via: dBpowerAMP V12.0
#
DISCID=790fe618
DTITLE=Various Artist - New Orleans Funk
DYEAR=1970
DGENRE=R&B
TTITLE0=The Meters - Handclapping Song
TTITLE1=The Explosions - Hip Drop
TTITLE2=Lee Dorsey - Who's Gonna Help Brother Get Further
TTITLE3=Gentleman June Gardner - It's Gonna Rain
TTITLE4=Eddie Bo - Check Your Bucket
TTITLE5=Professor Longhair - Big Chief
TTITLE6=Huey 'Piano' Smith and His Clowns - Free, Single and Disengaged
TTITLE7=Chuck Carbo - Can I Be Your Squeeze
TTITLE8=Aaron Neville - Hercules
TTITLE9=Mary Jane Hooper - I've Got Reasons
TTITLE10=The Gaturs - Gator Bait
TTITLE11=Allen Toussaint - Get Out of My Life Woman
TTITLE12=Cyril Neville - Tell Me What's on Your Mind
TTITLE13=Bo Dollis and The Wild Magnolia Mardi Gras Indian Band - Handa Wanda
TTITLE14=Lee Dorsey and Betty Harris - Love Lots of Lovin'
TTITLE15=The Explosions - Garden of Four Trees
TTITLE16=Ernie and The Top Notes - Dap Walk
TTITLE17=The Meters - Just Kissed My Baby
TTITLE18=Marilyn Barbarin - Reborn
TTITLE19=Dr. John - Mama Roux
TTITLE20=Danny White - Natural Soul Brother
TTITLE21=Eddie Bo - Hook 'N' Sling, Pt. 2
TTITLE22=Ernie K-Doe - Here Come the Girls
TTITLE23=Robert Parker - Hip-Huggin'
EXTD=
EXTT0=
EXTT1=
EXTT2=
EXTT3=
EXTT4=
EXTT5=
EXTT6=
EXTT7=
EXTT8=
EXTT9=
EXTT10=
EXTT11=
EXTT12=
EXTT13=
EXTT14=
EXTT15=
EXTT16=
EXTT17=
EXTT18=
EXTT19=
EXTT20=
EXTT21=
EXTT22=
EXTT23=
PLAYORDER=
